<svg xmlns="http://www.w3.org/2000/svg" viewBox="0 0 760 1140"><rect width="760" height="1140" fill="#070809"/><circle cx="380" cy="350" r="205" fill="#111315" stroke="#8d1d24" stroke-width="6"/><path d="M225 320Q250 90 380 90T535 320Q460 235 380 245T225 320Z" fill="#020303"/><path d="M255 355q65-45 112 0m26 0q65-45 112 0" fill="none" stroke="#ef3340" stroke-width="11"/><circle cx="330" cy="355" r="9" fill="#ff4955"/><circle cx="440" cy="355" r="9" fill="#ff4955"/><path d="M330 485q50 38 100 0" fill="none" stroke="#a5262e" stroke-width="6"/><path d="M145 1140V780Q185 600 380 600T615 780v360" fill="#0d1011" stroke="#53171b" stroke-width="7"/><path d="M270 650l110 135 110-135" fill="none" stroke="#ef3340" stroke-width="6"/><g font-family="monospace" fill="#ef3340"><text x="38" y="70" font-size="28">FICHA 08 / AMENAZA OPERATIVA</text><text x="38" y="1035" font-size="60" font-weight="bold">VERO</text><text x="38" y="1090" font-size="22">HE REALIZADO EL CAMBIO PERTINENTE.</text></g></svg>